<?xml version="1.0" encoding="UTF-8"?>
<svg width="20px" height="20px" viewBox="0 0 20 20" version="1.1" xmlns="http://www.w3.org/2000/svg" xmlns:xlink="http://www.w3.org/1999/xlink">
    <!-- Generator: Sketch 52.6 (67491) - http://www.bohemiancoding.com/sketch -->
    <title>icn/parkings-alt-2 copy</title>
    <desc>Created with Sketch.</desc>
    <g id="icn/parkings-alt-2-copy" stroke="none" stroke-width="1" fill="none" fill-rule="evenodd">
        <path d="M17.5,10 L18,11 L18,17 C18,17.5522847 17.5522847,18 17,18 L15,18 C14.4477153,18 14,17.5522847 14,17 L14,16 L6.02142334,16 L6.00817346,17.0130777 C6.00101753,17.5602153 5.5554433,18 5.00825897,18 L3,18 C2.44771525,18 2,17.5522847 2,17 L2,11 L2.5,10 L1,10 C1,8.8954305 1.8954305,8 3,8 L3,9 L4.4472136,6.10557281 C4.78599762,5.42800475 5.47852386,5 6.23606798,5 L13.763932,5 C14.5214761,5 15.2140024,5.42800475 15.5527864,6.10557281 L17,9 L17,8 C18.1045695,8 19,8.8954305 19,10 L17.5,10 Z M3,11.236068 L3,17 L5.00825897,17 L5.03441666,15 L15,15 L15,17 L17,17 L17,11.236068 L14.6583592,6.5527864 C14.4889672,6.21400238 14.1427041,6 13.763932,6 L6.23606798,6 C5.85729592,6 5.5110328,6.21400238 5.34164079,6.5527864 L3,11.236068 Z M4.80603027,10 L5.23706055,9 L14.7866211,9 L15.2627563,10 L4.80603027,10 Z M13.5,12 L15.5,12 C15.7761424,12 16,12.2238576 16,12.5 C16,12.7761424 15.7761424,13 15.5,13 L13.5,13 C13.2238576,13 13,12.7761424 13,12.5 C13,12.2238576 13.2238576,12 13.5,12 Z M4.5,12 L6.5,12 C6.77614237,12 7,12.2238576 7,12.5 C7,12.7761424 6.77614237,13 6.5,13 L4.5,13 C4.22385763,13 4,12.7761424 4,12.5 C4,12.2238576 4.22385763,12 4.5,12 Z" id="Combined-Shape" fill="#5C6576" fill-rule="nonzero"></path>
    </g>
</svg>