<?xml version="1.0" encoding="utf-8"?>
<!-- Generator: Adobe Illustrator 16.0.3, SVG Export Plug-In . SVG Version: 6.00 Build 0)  -->
<!DOCTYPE svg PUBLIC "-//W3C//DTD SVG 1.1//EN" "http://www.w3.org/Graphics/SVG/1.1/DTD/svg11.dtd">
<svg version="1.1" xmlns="http://www.w3.org/2000/svg" xmlns:xlink="http://www.w3.org/1999/xlink" x="0px" y="0px" width="26px"
	 height="23px" viewBox="0 0 26 23" enable-background="new 0 0 26 23" xml:space="preserve">
<g id="Layer_1" display="none">
	<path display="inline" fill="#A5A5A5" fill-opacity="0.8" d="M18.28,2.511c-2.367,0-5.228,2.75-5.228,2.75s-2.865-2.75-5.23-2.75
		c0,0-4.905,0.152-4.905,4.797c0,4.644,8.938,11.415,8.938,11.415s0.649,0.463,1.198,0.463c0.546,0,1.198-0.463,1.198-0.463
		s8.937-6.771,8.937-11.415C23.187,2.663,18.28,2.511,18.28,2.511z"/>
	<g display="inline">
		<g>
			<path fill="#A5A5A5" d="M13.01,22.164c-0.877,0-1.809-0.645-1.913-0.717c-0.45-0.328-10.909-7.994-10.909-14.456
				C0.188,0.3,7.241,0.002,7.312,0c2.698,0,4.879,1.515,5.699,2.174C13.831,1.516,16.009,0,18.694,0
				c0.087,0.002,7.14,0.3,7.14,6.991c0,6.462-10.462,14.128-10.907,14.45C14.819,21.52,13.886,22.164,13.01,22.164z M7.326,1.016
				C7.093,1.024,1.203,1.291,1.203,6.991c0,5.95,10.381,13.556,10.487,13.63c0.205,0.146,0.85,0.529,1.32,0.529
				c0.472,0,1.131-0.393,1.327-0.531c0.101-0.072,10.482-7.684,10.482-13.628c0-5.7-5.892-5.967-6.142-5.976
				c-2.933,0-5.296,2.175-5.321,2.196l-0.345,0.324l-0.347-0.324C12.641,3.19,10.276,1.016,7.326,1.016z"/>
		</g>
	</g>
</g>
<g id="Layer_1_copy">
	<path fill="#FFFFFF" d="M18.28,0.511c-1.97,0-3.938,1.417-5.23,2.385C11.753,1.928,9.77,1,7.761,1c0,0-0.001,0-0.001,0
		C4.688,0,0.917,2.722,0.917,7.552c0,5.366,8.105,11.656,9.777,12.922c0.274,0.195,1.256,0.772,2.358,0.772
		c1.099,0,2.082-0.668,2.406-0.899c1.624-1.23,9.729-7.657,9.729-13.024C25.187,2.493,21.094,0.597,18.28,0.511z M14.25,18.723
		c0,0-0.651,0.463-1.198,0.463c-0.548,0-1.198-0.463-1.198-0.463S2.917,11.952,2.917,7.308c0-4.645,4.905-4.797,4.905-4.797
		c2.366,0,5.23,2.75,5.23,2.75s2.861-2.75,5.228-2.75c0,0,4.906,0.152,4.906,4.797C23.187,11.952,14.25,18.723,14.25,18.723z"/>
	<path fill="#A5A5A5" fill-opacity="0.8" d="M18.28,2.511c-2.367,0-5.228,2.75-5.228,2.75s-2.865-2.75-5.23-2.75
		c0,0-4.905,0.152-4.905,4.797c0,4.644,8.938,11.415,8.938,11.415s0.649,0.463,1.198,0.463c0.546,0,1.198-0.463,1.198-0.463
		s8.937-6.771,8.937-11.415C23.187,2.663,18.28,2.511,18.28,2.511z"/>
	<g>
		<g>
			<path fill="#A5A5A5" d="M13.01,22.164c-0.877,0-1.809-0.645-1.913-0.717c-0.45-0.328-10.909-7.994-10.909-14.456
				C0.188,0.3,7.241,0.002,7.312,0c2.698,0,4.879,1.515,5.699,2.174C13.831,1.516,16.009,0,18.694,0
				c0.087,0.002,7.14,0.3,7.14,6.991c0,6.462-10.462,14.128-10.907,14.45C14.819,21.52,13.886,22.164,13.01,22.164z M7.326,1.016
				C7.093,1.024,1.203,1.291,1.203,6.991c0,5.95,10.381,13.556,10.487,13.63c0.205,0.146,0.85,0.529,1.32,0.529
				c0.472,0,1.131-0.393,1.327-0.531c0.101-0.072,10.482-7.684,10.482-13.628c0-5.7-5.892-5.967-6.142-5.976
				c-2.933,0-5.296,2.175-5.321,2.196l-0.345,0.324l-0.347-0.324C12.641,3.19,10.276,1.016,7.326,1.016z"/>
		</g>
	</g>
</g>
</svg>
